<mxfile host="app.diagrams.net" modified="2024-06-06T10:39:35.015Z" agent="Mozilla/5.0 (Windows NT 10.0; Win64; x64) AppleWebKit/537.36 (KHTML, like Gecko) Chrome/125.0.0.0 Safari/537.36" etag="15w3meoLD-pAc_R4h3Fb" version="24.4.13" type="device">
  <diagram name="Page-1" id="Xjv-5F5OoFyqdeMNegjY">
    <mxGraphModel dx="880" dy="434" grid="1" gridSize="10" guides="1" tooltips="1" connect="1" arrows="1" fold="1" page="1" pageScale="1" pageWidth="827" pageHeight="1169" math="0" shadow="0">
      <root>
        <mxCell id="0" />
        <mxCell id="1" parent="0" />
        <mxCell id="vVDiZaymRrMvzkdNASma-3" value="Full Set of URV data" style="rounded=0;whiteSpace=wrap;html=1;fillColor=#cdeb8b;strokeColor=#36393d;" vertex="1" parent="1">
          <mxGeometry x="10" y="160" width="90" height="390" as="geometry" />
        </mxCell>
        <mxCell id="vVDiZaymRrMvzkdNASma-4" value="fold 1" style="rounded=0;whiteSpace=wrap;html=1;fillColor=#eeeeee;strokeColor=#36393d;" vertex="1" parent="1">
          <mxGeometry x="110" y="100" width="40" height="30" as="geometry" />
        </mxCell>
        <mxCell id="vVDiZaymRrMvzkdNASma-5" value="fold 2" style="rounded=0;whiteSpace=wrap;html=1;fillColor=#eeeeee;strokeColor=#36393d;" vertex="1" parent="1">
          <mxGeometry x="160" y="100" width="40" height="30" as="geometry" />
        </mxCell>
        <mxCell id="vVDiZaymRrMvzkdNASma-11" value="fold 3" style="rounded=0;whiteSpace=wrap;html=1;fillColor=#eeeeee;strokeColor=#36393d;" vertex="1" parent="1">
          <mxGeometry x="210" y="100" width="40" height="30" as="geometry" />
        </mxCell>
        <mxCell id="vVDiZaymRrMvzkdNASma-12" value="fold 4" style="rounded=0;whiteSpace=wrap;html=1;fillColor=#eeeeee;strokeColor=#36393d;" vertex="1" parent="1">
          <mxGeometry x="260" y="100" width="40" height="30" as="geometry" />
        </mxCell>
        <mxCell id="vVDiZaymRrMvzkdNASma-13" value="fold 5" style="rounded=0;whiteSpace=wrap;html=1;fillColor=#eeeeee;strokeColor=#36393d;" vertex="1" parent="1">
          <mxGeometry x="310" y="100" width="40" height="30" as="geometry" />
        </mxCell>
        <mxCell id="vVDiZaymRrMvzkdNASma-14" value="fold 6" style="rounded=0;whiteSpace=wrap;html=1;fillColor=#eeeeee;strokeColor=#36393d;" vertex="1" parent="1">
          <mxGeometry x="360" y="100" width="40" height="30" as="geometry" />
        </mxCell>
        <mxCell id="vVDiZaymRrMvzkdNASma-15" value="fold 7" style="rounded=0;whiteSpace=wrap;html=1;fillColor=#eeeeee;strokeColor=#36393d;" vertex="1" parent="1">
          <mxGeometry x="410" y="100" width="40" height="30" as="geometry" />
        </mxCell>
        <mxCell id="vVDiZaymRrMvzkdNASma-16" value="fold 8" style="rounded=0;whiteSpace=wrap;html=1;fillColor=#eeeeee;strokeColor=#36393d;" vertex="1" parent="1">
          <mxGeometry x="460" y="100" width="40" height="30" as="geometry" />
        </mxCell>
        <mxCell id="vVDiZaymRrMvzkdNASma-17" value="fold 9" style="rounded=0;whiteSpace=wrap;html=1;fillColor=#eeeeee;strokeColor=#36393d;" vertex="1" parent="1">
          <mxGeometry x="510" y="100" width="40" height="30" as="geometry" />
        </mxCell>
        <mxCell id="vVDiZaymRrMvzkdNASma-18" value="fold 10" style="rounded=0;whiteSpace=wrap;html=1;fillColor=#eeeeee;strokeColor=#36393d;" vertex="1" parent="1">
          <mxGeometry x="560" y="100" width="40" height="30" as="geometry" />
        </mxCell>
        <mxCell id="vVDiZaymRrMvzkdNASma-39" value="test" style="rounded=0;whiteSpace=wrap;html=1;fillColor=#ffcc99;strokeColor=#36393d;" vertex="1" parent="1">
          <mxGeometry x="110" y="160" width="40" height="30" as="geometry" />
        </mxCell>
        <mxCell id="vVDiZaymRrMvzkdNASma-40" value="train" style="rounded=0;whiteSpace=wrap;html=1;fillColor=#cce5ff;strokeColor=#36393d;" vertex="1" parent="1">
          <mxGeometry x="160" y="160" width="40" height="30" as="geometry" />
        </mxCell>
        <mxCell id="vVDiZaymRrMvzkdNASma-41" value="train" style="rounded=0;whiteSpace=wrap;html=1;fillColor=#cce5ff;strokeColor=#36393d;" vertex="1" parent="1">
          <mxGeometry x="210" y="160" width="40" height="30" as="geometry" />
        </mxCell>
        <mxCell id="vVDiZaymRrMvzkdNASma-42" value="train" style="rounded=0;whiteSpace=wrap;html=1;fillColor=#cce5ff;strokeColor=#36393d;" vertex="1" parent="1">
          <mxGeometry x="260" y="160" width="40" height="30" as="geometry" />
        </mxCell>
        <mxCell id="vVDiZaymRrMvzkdNASma-43" value="train" style="rounded=0;whiteSpace=wrap;html=1;fillColor=#cce5ff;strokeColor=#36393d;" vertex="1" parent="1">
          <mxGeometry x="310" y="160" width="40" height="30" as="geometry" />
        </mxCell>
        <mxCell id="vVDiZaymRrMvzkdNASma-44" value="train" style="rounded=0;whiteSpace=wrap;html=1;fillColor=#cce5ff;strokeColor=#36393d;" vertex="1" parent="1">
          <mxGeometry x="360" y="160" width="40" height="30" as="geometry" />
        </mxCell>
        <mxCell id="vVDiZaymRrMvzkdNASma-45" value="train" style="rounded=0;whiteSpace=wrap;html=1;fillColor=#cce5ff;strokeColor=#36393d;" vertex="1" parent="1">
          <mxGeometry x="410" y="160" width="40" height="30" as="geometry" />
        </mxCell>
        <mxCell id="vVDiZaymRrMvzkdNASma-46" value="train" style="rounded=0;whiteSpace=wrap;html=1;fillColor=#cce5ff;strokeColor=#36393d;" vertex="1" parent="1">
          <mxGeometry x="460" y="160" width="40" height="30" as="geometry" />
        </mxCell>
        <mxCell id="vVDiZaymRrMvzkdNASma-47" value="train" style="rounded=0;whiteSpace=wrap;html=1;fillColor=#cce5ff;strokeColor=#36393d;" vertex="1" parent="1">
          <mxGeometry x="510" y="160" width="40" height="30" as="geometry" />
        </mxCell>
        <mxCell id="vVDiZaymRrMvzkdNASma-48" value="train" style="rounded=0;whiteSpace=wrap;html=1;fillColor=#cce5ff;strokeColor=#36393d;" vertex="1" parent="1">
          <mxGeometry x="560" y="160" width="40" height="30" as="geometry" />
        </mxCell>
        <mxCell id="vVDiZaymRrMvzkdNASma-49" value="test" style="rounded=0;whiteSpace=wrap;html=1;fillColor=#ffcc99;strokeColor=#36393d;" vertex="1" parent="1">
          <mxGeometry x="160" y="200" width="40" height="30" as="geometry" />
        </mxCell>
        <mxCell id="vVDiZaymRrMvzkdNASma-50" value="train" style="rounded=0;whiteSpace=wrap;html=1;fillColor=#cce5ff;strokeColor=#36393d;" vertex="1" parent="1">
          <mxGeometry x="110" y="200" width="40" height="30" as="geometry" />
        </mxCell>
        <mxCell id="vVDiZaymRrMvzkdNASma-51" value="train" style="rounded=0;whiteSpace=wrap;html=1;fillColor=#cce5ff;strokeColor=#36393d;" vertex="1" parent="1">
          <mxGeometry x="210" y="200" width="40" height="30" as="geometry" />
        </mxCell>
        <mxCell id="vVDiZaymRrMvzkdNASma-52" value="train" style="rounded=0;whiteSpace=wrap;html=1;fillColor=#cce5ff;strokeColor=#36393d;" vertex="1" parent="1">
          <mxGeometry x="260" y="200" width="40" height="30" as="geometry" />
        </mxCell>
        <mxCell id="vVDiZaymRrMvzkdNASma-53" value="train" style="rounded=0;whiteSpace=wrap;html=1;fillColor=#cce5ff;strokeColor=#36393d;" vertex="1" parent="1">
          <mxGeometry x="310" y="200" width="40" height="30" as="geometry" />
        </mxCell>
        <mxCell id="vVDiZaymRrMvzkdNASma-54" value="train" style="rounded=0;whiteSpace=wrap;html=1;fillColor=#cce5ff;strokeColor=#36393d;" vertex="1" parent="1">
          <mxGeometry x="360" y="200" width="40" height="30" as="geometry" />
        </mxCell>
        <mxCell id="vVDiZaymRrMvzkdNASma-55" value="train" style="rounded=0;whiteSpace=wrap;html=1;fillColor=#cce5ff;strokeColor=#36393d;" vertex="1" parent="1">
          <mxGeometry x="410" y="200" width="40" height="30" as="geometry" />
        </mxCell>
        <mxCell id="vVDiZaymRrMvzkdNASma-56" value="train" style="rounded=0;whiteSpace=wrap;html=1;fillColor=#cce5ff;strokeColor=#36393d;" vertex="1" parent="1">
          <mxGeometry x="460" y="200" width="40" height="30" as="geometry" />
        </mxCell>
        <mxCell id="vVDiZaymRrMvzkdNASma-57" value="train" style="rounded=0;whiteSpace=wrap;html=1;fillColor=#cce5ff;strokeColor=#36393d;" vertex="1" parent="1">
          <mxGeometry x="510" y="200" width="40" height="30" as="geometry" />
        </mxCell>
        <mxCell id="vVDiZaymRrMvzkdNASma-58" value="train" style="rounded=0;whiteSpace=wrap;html=1;fillColor=#cce5ff;strokeColor=#36393d;" vertex="1" parent="1">
          <mxGeometry x="560" y="200" width="40" height="30" as="geometry" />
        </mxCell>
        <mxCell id="vVDiZaymRrMvzkdNASma-59" value="test" style="rounded=0;whiteSpace=wrap;html=1;fillColor=#ffcc99;strokeColor=#36393d;" vertex="1" parent="1">
          <mxGeometry x="210" y="240" width="40" height="30" as="geometry" />
        </mxCell>
        <mxCell id="vVDiZaymRrMvzkdNASma-60" value="train" style="rounded=0;whiteSpace=wrap;html=1;fillColor=#cce5ff;strokeColor=#36393d;" vertex="1" parent="1">
          <mxGeometry x="110" y="240" width="40" height="30" as="geometry" />
        </mxCell>
        <mxCell id="vVDiZaymRrMvzkdNASma-61" value="train" style="rounded=0;whiteSpace=wrap;html=1;fillColor=#cce5ff;strokeColor=#36393d;" vertex="1" parent="1">
          <mxGeometry x="160" y="240" width="40" height="30" as="geometry" />
        </mxCell>
        <mxCell id="vVDiZaymRrMvzkdNASma-62" value="train" style="rounded=0;whiteSpace=wrap;html=1;fillColor=#cce5ff;strokeColor=#36393d;" vertex="1" parent="1">
          <mxGeometry x="260" y="240" width="40" height="30" as="geometry" />
        </mxCell>
        <mxCell id="vVDiZaymRrMvzkdNASma-63" value="train" style="rounded=0;whiteSpace=wrap;html=1;fillColor=#cce5ff;strokeColor=#36393d;" vertex="1" parent="1">
          <mxGeometry x="310" y="240" width="40" height="30" as="geometry" />
        </mxCell>
        <mxCell id="vVDiZaymRrMvzkdNASma-64" value="train" style="rounded=0;whiteSpace=wrap;html=1;fillColor=#cce5ff;strokeColor=#36393d;" vertex="1" parent="1">
          <mxGeometry x="360" y="240" width="40" height="30" as="geometry" />
        </mxCell>
        <mxCell id="vVDiZaymRrMvzkdNASma-65" value="train" style="rounded=0;whiteSpace=wrap;html=1;fillColor=#cce5ff;strokeColor=#36393d;" vertex="1" parent="1">
          <mxGeometry x="410" y="240" width="40" height="30" as="geometry" />
        </mxCell>
        <mxCell id="vVDiZaymRrMvzkdNASma-66" value="train" style="rounded=0;whiteSpace=wrap;html=1;fillColor=#cce5ff;strokeColor=#36393d;" vertex="1" parent="1">
          <mxGeometry x="460" y="240" width="40" height="30" as="geometry" />
        </mxCell>
        <mxCell id="vVDiZaymRrMvzkdNASma-67" value="train" style="rounded=0;whiteSpace=wrap;html=1;fillColor=#cce5ff;strokeColor=#36393d;" vertex="1" parent="1">
          <mxGeometry x="510" y="240" width="40" height="30" as="geometry" />
        </mxCell>
        <mxCell id="vVDiZaymRrMvzkdNASma-68" value="train" style="rounded=0;whiteSpace=wrap;html=1;fillColor=#cce5ff;strokeColor=#36393d;" vertex="1" parent="1">
          <mxGeometry x="560" y="240" width="40" height="30" as="geometry" />
        </mxCell>
        <mxCell id="vVDiZaymRrMvzkdNASma-69" value="test" style="rounded=0;whiteSpace=wrap;html=1;fillColor=#ffcc99;strokeColor=#36393d;" vertex="1" parent="1">
          <mxGeometry x="260" y="280" width="40" height="30" as="geometry" />
        </mxCell>
        <mxCell id="vVDiZaymRrMvzkdNASma-70" value="train" style="rounded=0;whiteSpace=wrap;html=1;fillColor=#cce5ff;strokeColor=#36393d;" vertex="1" parent="1">
          <mxGeometry x="110" y="280" width="40" height="30" as="geometry" />
        </mxCell>
        <mxCell id="vVDiZaymRrMvzkdNASma-71" value="train" style="rounded=0;whiteSpace=wrap;html=1;fillColor=#cce5ff;strokeColor=#36393d;" vertex="1" parent="1">
          <mxGeometry x="160" y="280" width="40" height="30" as="geometry" />
        </mxCell>
        <mxCell id="vVDiZaymRrMvzkdNASma-72" value="train" style="rounded=0;whiteSpace=wrap;html=1;fillColor=#cce5ff;strokeColor=#36393d;" vertex="1" parent="1">
          <mxGeometry x="210" y="280" width="40" height="30" as="geometry" />
        </mxCell>
        <mxCell id="vVDiZaymRrMvzkdNASma-73" value="train" style="rounded=0;whiteSpace=wrap;html=1;fillColor=#cce5ff;strokeColor=#36393d;" vertex="1" parent="1">
          <mxGeometry x="310" y="280" width="40" height="30" as="geometry" />
        </mxCell>
        <mxCell id="vVDiZaymRrMvzkdNASma-74" value="train" style="rounded=0;whiteSpace=wrap;html=1;fillColor=#cce5ff;strokeColor=#36393d;" vertex="1" parent="1">
          <mxGeometry x="360" y="280" width="40" height="30" as="geometry" />
        </mxCell>
        <mxCell id="vVDiZaymRrMvzkdNASma-75" value="train" style="rounded=0;whiteSpace=wrap;html=1;fillColor=#cce5ff;strokeColor=#36393d;" vertex="1" parent="1">
          <mxGeometry x="410" y="280" width="40" height="30" as="geometry" />
        </mxCell>
        <mxCell id="vVDiZaymRrMvzkdNASma-76" value="train" style="rounded=0;whiteSpace=wrap;html=1;fillColor=#cce5ff;strokeColor=#36393d;" vertex="1" parent="1">
          <mxGeometry x="460" y="280" width="40" height="30" as="geometry" />
        </mxCell>
        <mxCell id="vVDiZaymRrMvzkdNASma-77" value="train" style="rounded=0;whiteSpace=wrap;html=1;fillColor=#cce5ff;strokeColor=#36393d;" vertex="1" parent="1">
          <mxGeometry x="510" y="280" width="40" height="30" as="geometry" />
        </mxCell>
        <mxCell id="vVDiZaymRrMvzkdNASma-78" value="train" style="rounded=0;whiteSpace=wrap;html=1;fillColor=#cce5ff;strokeColor=#36393d;" vertex="1" parent="1">
          <mxGeometry x="560" y="280" width="40" height="30" as="geometry" />
        </mxCell>
        <mxCell id="vVDiZaymRrMvzkdNASma-80" value="test" style="rounded=0;whiteSpace=wrap;html=1;fillColor=#ffcc99;strokeColor=#36393d;" vertex="1" parent="1">
          <mxGeometry x="310" y="320" width="40" height="30" as="geometry" />
        </mxCell>
        <mxCell id="vVDiZaymRrMvzkdNASma-81" value="train" style="rounded=0;whiteSpace=wrap;html=1;fillColor=#cce5ff;strokeColor=#36393d;" vertex="1" parent="1">
          <mxGeometry x="110" y="320" width="40" height="30" as="geometry" />
        </mxCell>
        <mxCell id="vVDiZaymRrMvzkdNASma-82" value="train" style="rounded=0;whiteSpace=wrap;html=1;fillColor=#cce5ff;strokeColor=#36393d;" vertex="1" parent="1">
          <mxGeometry x="160" y="320" width="40" height="30" as="geometry" />
        </mxCell>
        <mxCell id="vVDiZaymRrMvzkdNASma-83" value="train" style="rounded=0;whiteSpace=wrap;html=1;fillColor=#cce5ff;strokeColor=#36393d;" vertex="1" parent="1">
          <mxGeometry x="210" y="320" width="40" height="30" as="geometry" />
        </mxCell>
        <mxCell id="vVDiZaymRrMvzkdNASma-84" value="train" style="rounded=0;whiteSpace=wrap;html=1;fillColor=#cce5ff;strokeColor=#36393d;" vertex="1" parent="1">
          <mxGeometry x="260" y="320" width="40" height="30" as="geometry" />
        </mxCell>
        <mxCell id="vVDiZaymRrMvzkdNASma-85" value="train" style="rounded=0;whiteSpace=wrap;html=1;fillColor=#cce5ff;strokeColor=#36393d;" vertex="1" parent="1">
          <mxGeometry x="360" y="320" width="40" height="30" as="geometry" />
        </mxCell>
        <mxCell id="vVDiZaymRrMvzkdNASma-86" value="train" style="rounded=0;whiteSpace=wrap;html=1;fillColor=#cce5ff;strokeColor=#36393d;" vertex="1" parent="1">
          <mxGeometry x="410" y="320" width="40" height="30" as="geometry" />
        </mxCell>
        <mxCell id="vVDiZaymRrMvzkdNASma-87" value="train" style="rounded=0;whiteSpace=wrap;html=1;fillColor=#cce5ff;strokeColor=#36393d;" vertex="1" parent="1">
          <mxGeometry x="460" y="320" width="40" height="30" as="geometry" />
        </mxCell>
        <mxCell id="vVDiZaymRrMvzkdNASma-88" value="train" style="rounded=0;whiteSpace=wrap;html=1;fillColor=#cce5ff;strokeColor=#36393d;" vertex="1" parent="1">
          <mxGeometry x="510" y="320" width="40" height="30" as="geometry" />
        </mxCell>
        <mxCell id="vVDiZaymRrMvzkdNASma-89" value="train" style="rounded=0;whiteSpace=wrap;html=1;fillColor=#cce5ff;strokeColor=#36393d;" vertex="1" parent="1">
          <mxGeometry x="560" y="320" width="40" height="30" as="geometry" />
        </mxCell>
        <mxCell id="vVDiZaymRrMvzkdNASma-90" value="test" style="rounded=0;whiteSpace=wrap;html=1;fillColor=#ffcc99;strokeColor=#36393d;" vertex="1" parent="1">
          <mxGeometry x="360" y="360" width="40" height="30" as="geometry" />
        </mxCell>
        <mxCell id="vVDiZaymRrMvzkdNASma-91" value="train" style="rounded=0;whiteSpace=wrap;html=1;fillColor=#cce5ff;strokeColor=#36393d;" vertex="1" parent="1">
          <mxGeometry x="160" y="360" width="40" height="30" as="geometry" />
        </mxCell>
        <mxCell id="vVDiZaymRrMvzkdNASma-92" value="train" style="rounded=0;whiteSpace=wrap;html=1;fillColor=#cce5ff;strokeColor=#36393d;" vertex="1" parent="1">
          <mxGeometry x="210" y="360" width="40" height="30" as="geometry" />
        </mxCell>
        <mxCell id="vVDiZaymRrMvzkdNASma-93" value="train" style="rounded=0;whiteSpace=wrap;html=1;fillColor=#cce5ff;strokeColor=#36393d;" vertex="1" parent="1">
          <mxGeometry x="260" y="360" width="40" height="30" as="geometry" />
        </mxCell>
        <mxCell id="vVDiZaymRrMvzkdNASma-94" value="train" style="rounded=0;whiteSpace=wrap;html=1;fillColor=#cce5ff;strokeColor=#36393d;" vertex="1" parent="1">
          <mxGeometry x="110" y="360" width="40" height="30" as="geometry" />
        </mxCell>
        <mxCell id="vVDiZaymRrMvzkdNASma-95" value="train" style="rounded=0;whiteSpace=wrap;html=1;fillColor=#cce5ff;strokeColor=#36393d;" vertex="1" parent="1">
          <mxGeometry x="310" y="360" width="40" height="30" as="geometry" />
        </mxCell>
        <mxCell id="vVDiZaymRrMvzkdNASma-96" value="train" style="rounded=0;whiteSpace=wrap;html=1;fillColor=#cce5ff;strokeColor=#36393d;" vertex="1" parent="1">
          <mxGeometry x="410" y="360" width="40" height="30" as="geometry" />
        </mxCell>
        <mxCell id="vVDiZaymRrMvzkdNASma-97" value="train" style="rounded=0;whiteSpace=wrap;html=1;fillColor=#cce5ff;strokeColor=#36393d;" vertex="1" parent="1">
          <mxGeometry x="460" y="360" width="40" height="30" as="geometry" />
        </mxCell>
        <mxCell id="vVDiZaymRrMvzkdNASma-98" value="train" style="rounded=0;whiteSpace=wrap;html=1;fillColor=#cce5ff;strokeColor=#36393d;" vertex="1" parent="1">
          <mxGeometry x="510" y="360" width="40" height="30" as="geometry" />
        </mxCell>
        <mxCell id="vVDiZaymRrMvzkdNASma-99" value="train" style="rounded=0;whiteSpace=wrap;html=1;fillColor=#cce5ff;strokeColor=#36393d;" vertex="1" parent="1">
          <mxGeometry x="560" y="360" width="40" height="30" as="geometry" />
        </mxCell>
        <mxCell id="vVDiZaymRrMvzkdNASma-100" value="test" style="rounded=0;whiteSpace=wrap;html=1;fillColor=#ffcc99;strokeColor=#36393d;" vertex="1" parent="1">
          <mxGeometry x="410" y="400" width="40" height="30" as="geometry" />
        </mxCell>
        <mxCell id="vVDiZaymRrMvzkdNASma-101" value="train" style="rounded=0;whiteSpace=wrap;html=1;fillColor=#cce5ff;strokeColor=#36393d;" vertex="1" parent="1">
          <mxGeometry x="110" y="400" width="40" height="30" as="geometry" />
        </mxCell>
        <mxCell id="vVDiZaymRrMvzkdNASma-102" value="train" style="rounded=0;whiteSpace=wrap;html=1;fillColor=#cce5ff;strokeColor=#36393d;" vertex="1" parent="1">
          <mxGeometry x="210" y="400" width="40" height="30" as="geometry" />
        </mxCell>
        <mxCell id="vVDiZaymRrMvzkdNASma-103" value="train" style="rounded=0;whiteSpace=wrap;html=1;fillColor=#cce5ff;strokeColor=#36393d;" vertex="1" parent="1">
          <mxGeometry x="260" y="400" width="40" height="30" as="geometry" />
        </mxCell>
        <mxCell id="vVDiZaymRrMvzkdNASma-104" value="train" style="rounded=0;whiteSpace=wrap;html=1;fillColor=#cce5ff;strokeColor=#36393d;" vertex="1" parent="1">
          <mxGeometry x="310" y="400" width="40" height="30" as="geometry" />
        </mxCell>
        <mxCell id="vVDiZaymRrMvzkdNASma-105" value="train" style="rounded=0;whiteSpace=wrap;html=1;fillColor=#cce5ff;strokeColor=#36393d;" vertex="1" parent="1">
          <mxGeometry x="360" y="400" width="40" height="30" as="geometry" />
        </mxCell>
        <mxCell id="vVDiZaymRrMvzkdNASma-106" value="train" style="rounded=0;whiteSpace=wrap;html=1;fillColor=#cce5ff;strokeColor=#36393d;" vertex="1" parent="1">
          <mxGeometry x="160" y="400" width="40" height="30" as="geometry" />
        </mxCell>
        <mxCell id="vVDiZaymRrMvzkdNASma-107" value="train" style="rounded=0;whiteSpace=wrap;html=1;fillColor=#cce5ff;strokeColor=#36393d;" vertex="1" parent="1">
          <mxGeometry x="460" y="400" width="40" height="30" as="geometry" />
        </mxCell>
        <mxCell id="vVDiZaymRrMvzkdNASma-108" value="train" style="rounded=0;whiteSpace=wrap;html=1;fillColor=#cce5ff;strokeColor=#36393d;" vertex="1" parent="1">
          <mxGeometry x="510" y="400" width="40" height="30" as="geometry" />
        </mxCell>
        <mxCell id="vVDiZaymRrMvzkdNASma-109" value="train" style="rounded=0;whiteSpace=wrap;html=1;fillColor=#cce5ff;strokeColor=#36393d;" vertex="1" parent="1">
          <mxGeometry x="560" y="400" width="40" height="30" as="geometry" />
        </mxCell>
        <mxCell id="vVDiZaymRrMvzkdNASma-110" value="test" style="rounded=0;whiteSpace=wrap;html=1;fillColor=#ffcc99;strokeColor=#36393d;" vertex="1" parent="1">
          <mxGeometry x="460" y="440" width="40" height="30" as="geometry" />
        </mxCell>
        <mxCell id="vVDiZaymRrMvzkdNASma-111" value="train" style="rounded=0;whiteSpace=wrap;html=1;fillColor=#cce5ff;strokeColor=#36393d;" vertex="1" parent="1">
          <mxGeometry x="110" y="440" width="40" height="30" as="geometry" />
        </mxCell>
        <mxCell id="vVDiZaymRrMvzkdNASma-112" value="train" style="rounded=0;whiteSpace=wrap;html=1;fillColor=#cce5ff;strokeColor=#36393d;" vertex="1" parent="1">
          <mxGeometry x="160" y="440" width="40" height="30" as="geometry" />
        </mxCell>
        <mxCell id="vVDiZaymRrMvzkdNASma-113" value="train" style="rounded=0;whiteSpace=wrap;html=1;fillColor=#cce5ff;strokeColor=#36393d;" vertex="1" parent="1">
          <mxGeometry x="260" y="440" width="40" height="30" as="geometry" />
        </mxCell>
        <mxCell id="vVDiZaymRrMvzkdNASma-114" value="train" style="rounded=0;whiteSpace=wrap;html=1;fillColor=#cce5ff;strokeColor=#36393d;" vertex="1" parent="1">
          <mxGeometry x="310" y="440" width="40" height="30" as="geometry" />
        </mxCell>
        <mxCell id="vVDiZaymRrMvzkdNASma-115" value="train" style="rounded=0;whiteSpace=wrap;html=1;fillColor=#cce5ff;strokeColor=#36393d;" vertex="1" parent="1">
          <mxGeometry x="360" y="440" width="40" height="30" as="geometry" />
        </mxCell>
        <mxCell id="vVDiZaymRrMvzkdNASma-116" value="train" style="rounded=0;whiteSpace=wrap;html=1;fillColor=#cce5ff;strokeColor=#36393d;" vertex="1" parent="1">
          <mxGeometry x="410" y="440" width="40" height="30" as="geometry" />
        </mxCell>
        <mxCell id="vVDiZaymRrMvzkdNASma-117" value="train" style="rounded=0;whiteSpace=wrap;html=1;fillColor=#cce5ff;strokeColor=#36393d;" vertex="1" parent="1">
          <mxGeometry x="210" y="440" width="40" height="30" as="geometry" />
        </mxCell>
        <mxCell id="vVDiZaymRrMvzkdNASma-118" value="train" style="rounded=0;whiteSpace=wrap;html=1;fillColor=#cce5ff;strokeColor=#36393d;" vertex="1" parent="1">
          <mxGeometry x="510" y="440" width="40" height="30" as="geometry" />
        </mxCell>
        <mxCell id="vVDiZaymRrMvzkdNASma-119" value="train" style="rounded=0;whiteSpace=wrap;html=1;fillColor=#cce5ff;strokeColor=#36393d;" vertex="1" parent="1">
          <mxGeometry x="560" y="440" width="40" height="30" as="geometry" />
        </mxCell>
        <mxCell id="vVDiZaymRrMvzkdNASma-120" value="test" style="rounded=0;whiteSpace=wrap;html=1;fillColor=#ffcc99;strokeColor=#36393d;" vertex="1" parent="1">
          <mxGeometry x="510" y="480" width="40" height="30" as="geometry" />
        </mxCell>
        <mxCell id="vVDiZaymRrMvzkdNASma-121" value="train" style="rounded=0;whiteSpace=wrap;html=1;fillColor=#cce5ff;strokeColor=#36393d;" vertex="1" parent="1">
          <mxGeometry x="110" y="480" width="40" height="30" as="geometry" />
        </mxCell>
        <mxCell id="vVDiZaymRrMvzkdNASma-122" value="train" style="rounded=0;whiteSpace=wrap;html=1;fillColor=#cce5ff;strokeColor=#36393d;" vertex="1" parent="1">
          <mxGeometry x="160" y="480" width="40" height="30" as="geometry" />
        </mxCell>
        <mxCell id="vVDiZaymRrMvzkdNASma-123" value="train" style="rounded=0;whiteSpace=wrap;html=1;fillColor=#cce5ff;strokeColor=#36393d;" vertex="1" parent="1">
          <mxGeometry x="210" y="480" width="40" height="30" as="geometry" />
        </mxCell>
        <mxCell id="vVDiZaymRrMvzkdNASma-124" value="train" style="rounded=0;whiteSpace=wrap;html=1;fillColor=#cce5ff;strokeColor=#36393d;" vertex="1" parent="1">
          <mxGeometry x="310" y="480" width="40" height="30" as="geometry" />
        </mxCell>
        <mxCell id="vVDiZaymRrMvzkdNASma-125" value="train" style="rounded=0;whiteSpace=wrap;html=1;fillColor=#cce5ff;strokeColor=#36393d;" vertex="1" parent="1">
          <mxGeometry x="360" y="480" width="40" height="30" as="geometry" />
        </mxCell>
        <mxCell id="vVDiZaymRrMvzkdNASma-126" value="train" style="rounded=0;whiteSpace=wrap;html=1;fillColor=#cce5ff;strokeColor=#36393d;" vertex="1" parent="1">
          <mxGeometry x="410" y="480" width="40" height="30" as="geometry" />
        </mxCell>
        <mxCell id="vVDiZaymRrMvzkdNASma-127" value="train" style="rounded=0;whiteSpace=wrap;html=1;fillColor=#cce5ff;strokeColor=#36393d;" vertex="1" parent="1">
          <mxGeometry x="460" y="480" width="40" height="30" as="geometry" />
        </mxCell>
        <mxCell id="vVDiZaymRrMvzkdNASma-128" value="train" style="rounded=0;whiteSpace=wrap;html=1;fillColor=#cce5ff;strokeColor=#36393d;" vertex="1" parent="1">
          <mxGeometry x="260" y="480" width="40" height="30" as="geometry" />
        </mxCell>
        <mxCell id="vVDiZaymRrMvzkdNASma-129" value="train" style="rounded=0;whiteSpace=wrap;html=1;fillColor=#cce5ff;strokeColor=#36393d;" vertex="1" parent="1">
          <mxGeometry x="560" y="480" width="40" height="30" as="geometry" />
        </mxCell>
        <mxCell id="vVDiZaymRrMvzkdNASma-130" value="test" style="rounded=0;whiteSpace=wrap;html=1;fillColor=#ffcc99;strokeColor=#36393d;" vertex="1" parent="1">
          <mxGeometry x="560" y="520" width="40" height="30" as="geometry" />
        </mxCell>
        <mxCell id="vVDiZaymRrMvzkdNASma-131" value="train" style="rounded=0;whiteSpace=wrap;html=1;fillColor=#cce5ff;strokeColor=#36393d;" vertex="1" parent="1">
          <mxGeometry x="110" y="520" width="40" height="30" as="geometry" />
        </mxCell>
        <mxCell id="vVDiZaymRrMvzkdNASma-132" value="train" style="rounded=0;whiteSpace=wrap;html=1;fillColor=#cce5ff;strokeColor=#36393d;" vertex="1" parent="1">
          <mxGeometry x="160" y="520" width="40" height="30" as="geometry" />
        </mxCell>
        <mxCell id="vVDiZaymRrMvzkdNASma-133" value="train" style="rounded=0;whiteSpace=wrap;html=1;fillColor=#cce5ff;strokeColor=#36393d;" vertex="1" parent="1">
          <mxGeometry x="210" y="520" width="40" height="30" as="geometry" />
        </mxCell>
        <mxCell id="vVDiZaymRrMvzkdNASma-134" value="train" style="rounded=0;whiteSpace=wrap;html=1;fillColor=#cce5ff;strokeColor=#36393d;" vertex="1" parent="1">
          <mxGeometry x="260" y="520" width="40" height="30" as="geometry" />
        </mxCell>
        <mxCell id="vVDiZaymRrMvzkdNASma-135" value="train" style="rounded=0;whiteSpace=wrap;html=1;fillColor=#cce5ff;strokeColor=#36393d;" vertex="1" parent="1">
          <mxGeometry x="360" y="520" width="40" height="30" as="geometry" />
        </mxCell>
        <mxCell id="vVDiZaymRrMvzkdNASma-136" value="train" style="rounded=0;whiteSpace=wrap;html=1;fillColor=#cce5ff;strokeColor=#36393d;" vertex="1" parent="1">
          <mxGeometry x="410" y="520" width="40" height="30" as="geometry" />
        </mxCell>
        <mxCell id="vVDiZaymRrMvzkdNASma-137" value="train" style="rounded=0;whiteSpace=wrap;html=1;fillColor=#cce5ff;strokeColor=#36393d;" vertex="1" parent="1">
          <mxGeometry x="460" y="520" width="40" height="30" as="geometry" />
        </mxCell>
        <mxCell id="vVDiZaymRrMvzkdNASma-138" value="train" style="rounded=0;whiteSpace=wrap;html=1;fillColor=#cce5ff;strokeColor=#36393d;" vertex="1" parent="1">
          <mxGeometry x="310" y="520" width="40" height="30" as="geometry" />
        </mxCell>
        <mxCell id="vVDiZaymRrMvzkdNASma-139" value="train" style="rounded=0;whiteSpace=wrap;html=1;fillColor=#cce5ff;strokeColor=#36393d;" vertex="1" parent="1">
          <mxGeometry x="510" y="520" width="40" height="30" as="geometry" />
        </mxCell>
        <mxCell id="vVDiZaymRrMvzkdNASma-141" value="fold 1&amp;nbsp;&lt;div&gt;MSE&lt;/div&gt;" style="rounded=0;whiteSpace=wrap;html=1;fillColor=#ffff88;strokeColor=#36393d;" vertex="1" parent="1">
          <mxGeometry x="610" y="160" width="50" height="30" as="geometry" />
        </mxCell>
        <mxCell id="vVDiZaymRrMvzkdNASma-143" value="fold 2&amp;nbsp;&lt;div&gt;MSE&lt;/div&gt;" style="rounded=0;whiteSpace=wrap;html=1;fillColor=#ffff88;strokeColor=#36393d;" vertex="1" parent="1">
          <mxGeometry x="610" y="200" width="50" height="30" as="geometry" />
        </mxCell>
        <mxCell id="vVDiZaymRrMvzkdNASma-144" value="fold 3&amp;nbsp;&lt;div&gt;MSE&lt;/div&gt;" style="rounded=0;whiteSpace=wrap;html=1;fillColor=#ffff88;strokeColor=#36393d;" vertex="1" parent="1">
          <mxGeometry x="610" y="240" width="50" height="30" as="geometry" />
        </mxCell>
        <mxCell id="vVDiZaymRrMvzkdNASma-145" value="fold 4&amp;nbsp;&lt;div&gt;MSE&lt;/div&gt;" style="rounded=0;whiteSpace=wrap;html=1;fillColor=#ffff88;strokeColor=#36393d;" vertex="1" parent="1">
          <mxGeometry x="610" y="280" width="50" height="30" as="geometry" />
        </mxCell>
        <mxCell id="vVDiZaymRrMvzkdNASma-146" value="fold 5&amp;nbsp;&lt;div&gt;MSE&lt;/div&gt;" style="rounded=0;whiteSpace=wrap;html=1;fillColor=#ffff88;strokeColor=#36393d;" vertex="1" parent="1">
          <mxGeometry x="610" y="320" width="50" height="30" as="geometry" />
        </mxCell>
        <mxCell id="vVDiZaymRrMvzkdNASma-147" value="fold 6&amp;nbsp;&lt;div&gt;MSE&lt;/div&gt;" style="rounded=0;whiteSpace=wrap;html=1;fillColor=#ffff88;strokeColor=#36393d;" vertex="1" parent="1">
          <mxGeometry x="610" y="360" width="50" height="30" as="geometry" />
        </mxCell>
        <mxCell id="vVDiZaymRrMvzkdNASma-148" value="fold 7&amp;nbsp;&lt;div&gt;MSE&lt;/div&gt;" style="rounded=0;whiteSpace=wrap;html=1;fillColor=#ffff88;strokeColor=#36393d;" vertex="1" parent="1">
          <mxGeometry x="610" y="400" width="50" height="30" as="geometry" />
        </mxCell>
        <mxCell id="vVDiZaymRrMvzkdNASma-149" value="fold 8&amp;nbsp;&lt;div&gt;MSE&lt;/div&gt;" style="rounded=0;whiteSpace=wrap;html=1;fillColor=#ffff88;strokeColor=#36393d;" vertex="1" parent="1">
          <mxGeometry x="610" y="440" width="50" height="30" as="geometry" />
        </mxCell>
        <mxCell id="vVDiZaymRrMvzkdNASma-150" value="fold 9&amp;nbsp;&lt;div&gt;MSE&lt;/div&gt;" style="rounded=0;whiteSpace=wrap;html=1;fillColor=#ffff88;strokeColor=#36393d;" vertex="1" parent="1">
          <mxGeometry x="610" y="480" width="50" height="30" as="geometry" />
        </mxCell>
        <mxCell id="vVDiZaymRrMvzkdNASma-151" value="fold 10&amp;nbsp;&lt;div&gt;MSE&lt;/div&gt;" style="rounded=0;whiteSpace=wrap;html=1;fillColor=#ffff88;strokeColor=#36393d;" vertex="1" parent="1">
          <mxGeometry x="610" y="520" width="50" height="30" as="geometry" />
        </mxCell>
        <mxCell id="vVDiZaymRrMvzkdNASma-152" value="Average MSE" style="rounded=0;whiteSpace=wrap;html=1;fillColor=#ffff88;strokeColor=#36393d;" vertex="1" parent="1">
          <mxGeometry x="680" y="160" width="90" height="390" as="geometry" />
        </mxCell>
      </root>
    </mxGraphModel>
  </diagram>
</mxfile>
